<svg xmlns="http://www.w3.org/2000/svg" width="24" height="24" viewBox="0 0 24 24" fill="none">
  <path d="M12 0C5.37 0 0 5.37 0 12s5.37 12 12 12 12-5.37 12-12S18.63 0 12 0zm6.86 7.06a9.83 9.83 0 0 1 1.24 3.95c-1.58-.1-3.79-.01-6.01.33-.16-.36-.31-.71-.48-1.07 2.22-1.03 3.9-2.5 5.25-3.21zM12 2.2c1.98 0 3.79.7 5.18 1.86-.83.45-2.08 1.16-3.74 1.8-1.85-.9-3.8-1.56-5.6-1.74A9.78 9.78 0 0 1 12 2.2zM4.18 5.4c1.76.17 3.73.83 5.59 1.74C8.33 9.16 6.04 11 4.6 13.22 2.92 10.42 2.06 7.99 4.18 5.4zM2.2 12c0-.24.02-.47.03-.7 1.36-1.84 3.05-3.4 5.08-4.49 1.43-1.06 3-1.8 4.69-2.2 1.07 2.08 1.96 4.58 2.64 6.78-3.93.66-7.34 1.89-10.44 3.75A9.52 9.52 0 0 1 2.2 12zM12 21.8c-1.9 0-3.63-.58-5.08-1.55 3.24-1.93 7.14-3.15 10.63-3.8.6 1.93 1.02 3.93 1.14 4.73A9.8 9.8 0 0 1 12 21.8z" fill="#374151"/>
</svg>
